# xmcd
# 
# Track frame offsets:
#     150
#     16787
#     34032
#     51522
#     71007
#     89177
#     106615
#     123700
#     143212
#     160637
#     179355
#     195515
# 
# Disc length: 2866
# 
# Revision: 7
# Processed by: cddbd v1.5.2PL0 Copyright (c) Steve Scherf et al.
# Submitted via: fre:ac v1.0.31
# 
DISCID=a30b300c
DTITLE=Café Quijano - La Taberna del Buda
DYEAR=2001
DGENRE=Latin
TTITLE0=Nada de Ná
TTITLE1=De Piratas
TTITLE2=Desde Brasil
TTITLE3=Lucía, la Corista
TTITLE4=Qué le Debo a la Vida
TTITLE5=En Aquel Hotel Jamaicano
TTITLE6=La Taberna del Buda
TTITLE7=Otra Vez (Qué pena de mí)
TTITLE8=Las Llaves de Raquel
TTITLE9=Qué Poca Cosa
TTITLE10=En mis Besos
TTITLE11=Otra Vez (Qué pena de mí) con Olga Tañón
EXTD=YEAR: 2001
EXTT0=
EXTT1=
EXTT2=
EXTT3=
EXTT4=
EXTT5=
EXTT6=
EXTT7=
EXTT8=
EXTT9=
EXTT10=
EXTT11=
PLAYORDER=
